<svg xmlns="http://www.w3.org/2000/svg" viewBox="0 0 200 200">
  <defs>
    <linearGradient id="bg" x1="0%" y1="0%" x2="100%" y2="100%">
      <stop offset="0%" style="stop-color:#281a0a"/>
      <stop offset="100%" style="stop-color:#4a3a1a"/>
    </linearGradient>
    <linearGradient id="glow" x1="0%" y1="0%" x2="100%" y2="100%">
      <stop offset="0%" style="stop-color:#fbbf24;stop-opacity:0.3"/>
      <stop offset="100%" style="stop-color:#d97706;stop-opacity:0.1"/>
    </linearGradient>
    <linearGradient id="jacket" x1="0%" y1="0%" x2="0%" y2="100%">
      <stop offset="0%" style="stop-color:#3a2a1a"/>
      <stop offset="100%" style="stop-color:#1a1008"/>
    </linearGradient>
  </defs>
  <circle cx="100" cy="100" r="95" fill="url(#bg)" stroke="#fbbf24" stroke-width="1" stroke-opacity="0.3"/>
  <circle cx="100" cy="100" r="80" fill="none" stroke="url(#glow)" stroke-width="0.5"/>
  <!-- Stylish jacket -->
  <path d="M65 180 L65 120 Q65 100 85 95 L100 90 L115 95 Q135 100 135 120 L135 180" fill="url(#jacket)"/>
  <!-- Collar/lapel -->
  <path d="M85 105 L100 95 L115 105 L110 125 L100 130 L90 125 Z" fill="#4a3a2a"/>
  <!-- Head -->
  <circle cx="100" cy="70" r="26" fill="#e8c4a0"/>
  <!-- Stylish hair -->
  <path d="M74 68 Q74 38 100 36 Q126 38 126 68 Q126 48 110 42 Q90 38 74 52 Z" fill="#1a1a2e"/>
  <path d="M78 45 Q90 35 105 40" fill="#2a2a3e" opacity="0.7"/>
  <!-- Sunglasses -->
  <path d="M80 65 L95 65 Q97 65 97 67 L97 72 Q97 74 95 74 L80 74 Q78 74 78 72 L78 67 Q78 65 80 65" fill="#1a1a2e" opacity="0.9"/>
  <path d="M105 65 L120 65 Q122 65 122 67 L122 72 Q122 74 120 74 L105 74 Q103 74 103 72 L103 67 Q103 65 105 65" fill="#1a1a2e" opacity="0.9"/>
  <line x1="97" y1="69" x2="103" y2="69" stroke="#1a1a2e" stroke-width="1.5"/>
  <!-- Reflection -->
  <line x1="82" y1="68" x2="88" y2="68" stroke="#fbbf24" stroke-width="0.5" opacity="0.4"/>
  <line x1="107" y1="68" x2="113" y2="68" stroke="#fbbf24" stroke-width="0.5" opacity="0.4"/>
  <!-- Confident smirk -->
  <path d="M92 82 Q100 88 108 82" fill="none" stroke="#8a6a4a" stroke-width="1.5" stroke-linecap="round"/>
  <!-- Gold chain -->
  <path d="M90 100 Q100 108 110 100" fill="none" stroke="#fbbf24" stroke-width="1" opacity="0.6"/>
  <circle cx="100" cy="108" r="3" fill="#fbbf24" opacity="0.7"/>
  <!-- Stage lights -->
  <circle cx="50" cy="50" r="3" fill="#fbbf24" opacity="0.2"/>
  <circle cx="150" cy="60" r="2" fill="#fbbf24" opacity="0.15"/>
  <circle cx="140" cy="45" r="2.5" fill="#fbbf24" opacity="0.25"/>
</svg>
